# xmcd
#
# Track frame offsets: 
#        150
#        18807
#        32620
#        50027
#        71948
#        97988
#        117200
#
# Disc length: 1806 seconds
#
# Revision: 0
# Processed by: cddbd v1.5.2PL0 Copyright (c) Steve Scherf et al.
# Submitted via: ExactAudioCopy v0.95b4
#
DISCID=56070c07
DTITLE=Dave Channell - It's A Hard Life
DYEAR=2004
DGENRE=Blues
TTITLE0=Why Don't You Love Me
TTITLE1=I'm A Hit Man
TTITLE2=I Got A Girl
TTITLE3=I Ain't No Good
TTITLE4=It's A Hard Life
TTITLE5=Let's Ride
TTITLE6=Somebody Changed The Lock
EXTD=
EXTT0=
EXTT1=
EXTT2=
EXTT3=
EXTT4=
EXTT5=
EXTT6=
PLAYORDER=
